<?xml version="1.0" encoding="UTF-8"?>
<svg width="48px" height="48px" viewBox="0 0 48 48" version="1.1" xmlns="http://www.w3.org/2000/svg" xmlns:xlink="http://www.w3.org/1999/xlink">
    <!-- Generator: sketchtool 51.1 (57501) - http://www.bohemiancoding.com/sketch -->
    <title>49B23ED4-66A2-44C6-B5DB-1B7ACD3C7C22</title>
    <desc>Created with sketchtool.</desc>
    <defs></defs>
    <g id="Page-1" stroke="none" stroke-width="1" fill="none" fill-rule="evenodd">
        <g id="Backoffice" transform="translate(-1188.000000, -116.000000)" fill-rule="nonzero">
            <g id="Highlights" transform="translate(439.000000, 86.000000)">
                <g id="Group-8" transform="translate(640.000000, 21.000000)">
                    <g id="Group" transform="translate(109.000000, 9.000000)">
                        <rect id="Rectangle-6" fill="#78868F" x="1" y="45" width="47" height="1"></rect>
                        <rect id="Rectangle-6-Copy" fill="#78868F" x="5" y="27" width="42" height="1"></rect>
                        <rect id="Rectangle-6-Copy-2" fill="#78868F" x="5" y="44" width="42" height="4"></rect>
                        <path d="M6.7661396,0.5 L41.1925176,0.5 C41.9314044,0.5 42.6324442,0.826853653 43.1074532,1.39282188 L47.0041488,6.03569313 C47.5367207,6.67024698 47.4540481,7.6163894 46.8194942,8.14896138 C46.5493273,8.37570866 46.2078976,8.5 45.8551874,8.5 L2.87592694,8.5 C2.04749982,8.5 1.37592694,7.82842712 1.37592694,7 C1.37592694,6.70218153 1.46458105,6.41110391 1.63059525,6.16384872 L4.69058677,1.60641453 C5.15491271,0.914865255 5.93316962,0.5 6.7661396,0.5 Z" id="Rectangle-5-Copy-4" stroke="#78868F" fill="#FFFFFF"></path>
                        <path d="M9.01774439,2.5 L38.9822556,2.5 C39.2964012,2.5 39.6026186,2.59863025 39.8577097,2.78197694 L40.291818,3.09399231 C40.6397971,3.34410227 40.7191357,3.82894922 40.4690257,4.17692828 C40.3232441,4.37975491 40.0887356,4.5 39.8389539,4.5 L8.16104611,4.5 C7.73250857,4.5 7.38511026,4.15260169 7.38511026,3.72406415 C7.38511026,3.47428239 7.50535535,3.23977395 7.70818198,3.09399231 L8.14229032,2.78197694 C8.39738138,2.59863025 8.70359879,2.5 9.01774439,2.5 Z" id="Rectangle-5-Copy-4" stroke="#78868F" fill="#FFFFFF"></path>
                        <path d="M3,6.5 L45,6.5 C46.3807119,6.5 47.5,7.61928813 47.5,9 L47.5,11.5 L0.5,11.5 L0.5,9 C0.5,7.61928813 1.61928813,6.5 3,6.5 Z" id="Rectangle-5-Copy-3" stroke="#78868F" fill="#FFFFFF"></path>
                        <path d="M3,6.5 L6.5,6.5 L6.5,47.5 L0.5,47.5 L0.5,9 C0.5,7.61928813 1.61928813,6.5 3,6.5 Z" id="Rectangle-5" stroke="#78868F" fill="#FFFFFF"></path>
                        <rect id="Rectangle-5-Copy-2" stroke="#78868F" fill="#FFFFFF" x="21.5" y="6.5" width="5" height="41"></rect>
                        <path d="M41.5,6.5 L45,6.5 C46.3807119,6.5 47.5,7.61928813 47.5,9 L47.5,47.5 L41.5,47.5 L41.5,6.5 Z" id="Rectangle-5-Copy" stroke="#78868F" fill="#FFFFFF"></path>
                    </g>
                </g>
            </g>
        </g>
    </g>
</svg>