<?xml version="1.0" encoding="UTF-8"?>
<svg width="48px" height="48px" viewBox="0 0 48 48" version="1.1" xmlns="http://www.w3.org/2000/svg" xmlns:xlink="http://www.w3.org/1999/xlink">
    <!-- Generator: sketchtool 51.1 (57501) - http://www.bohemiancoding.com/sketch -->
    <title>29AB2AA3-5A40-4FDC-80FE-2B390C6ABD15</title>
    <desc>Created with sketchtool.</desc>
    <defs></defs>
    <g id="Page-1" stroke="none" stroke-width="1" fill="none" fill-rule="evenodd">
        <g id="Backoffice" transform="translate(-755.000000, -116.000000)" fill="#78868F" fill-rule="nonzero">
            <g id="Highlights" transform="translate(439.000000, 86.000000)">
                <g id="Group-9" transform="translate(222.000000, 21.000000)">
                    <g id="snowflake" transform="translate(94.000000, 9.000000)">
                        <path d="M45.9734318,29.35848 C46.0821354,29.754578 45.8474071,30.1649485 45.4494543,30.2739562 L40.4284079,31.6426042 L39.8329046,31.8049278 L44.9727074,34.7403611 C45.3298728,34.9446687 45.4542528,35.400421 45.2500994,35.757317 C45.1161569,35.9924433 44.8679564,36.1333027 44.601805,36.1333027 C44.4727682,36.1333027 44.3465228,36.1003197 44.2338728,36.0353293 L39.6301384,33.4044784 L39.0945656,33.0984201 L40.6255524,38.7139053 C40.7343504,39.1110931 40.4999217,39.5207094 40.1016878,39.6297942 C40.037794,39.6472196 39.9724434,39.6557597 39.904862,39.6557597 C39.5712901,39.6557597 39.2749699,39.4327066 39.1862195,39.1063104 L37.2907751,32.1543448 L37.1710216,31.9996979 L31.6690149,28.8556941 L33.2653928,37.6101621 C33.3227408,37.919252 33.1787682,38.2312993 32.9065657,38.3898348 C32.6347443,38.5454725 32.2933408,38.5156556 32.051662,38.3135107 L25.6662177,32.9372411 L25.2461059,32.5835252 L25.2461059,38.9200371 L25.3209317,39.1007075 L30.4163789,44.1971561 C30.7081007,44.4888779 30.7081007,44.9598848 30.4163967,45.2515889 C30.2745426,45.393443 30.085702,45.4701166 29.8891892,45.4701166 C29.6926763,45.4701166 29.5038358,45.393443 29.3619816,45.2515889 L25.2461059,41.1357132 L25.2461059,47.0553307 C25.2461059,47.4675198 24.9123293,47.8010659 24.5003707,47.8010659 C24.0884121,47.8010659 23.7546355,47.4675198 23.7546355,47.0553307 L23.7546355,41.1355945 L19.6387352,45.2526147 C19.4969056,45.3944443 19.3080651,45.4711179 19.1115522,45.4711179 C18.9150394,45.4711179 18.7261988,45.3944443 18.5843447,45.2525902 C18.2926407,44.9608861 18.2926407,44.4898791 18.5843447,44.1981751 L23.6798097,39.1017088 L23.7546355,38.9210384 L23.7546355,32.6194318 L17.0096718,38.3488064 C16.8738972,38.4632953 16.7028157,38.5253294 16.5272824,38.5253294 C16.3977849,38.5253294 16.2698645,38.4915355 16.1558923,38.4260933 C15.8836314,38.26945 15.7384581,37.958212 15.793618,37.6481238 L17.2614665,29.4057436 L17.3574999,28.8664896 L11.850215,32.0310417 L11.7308372,32.185958 L9.85145919,39.1427605 C9.76343573,39.4699138 9.46642903,39.6938078 9.13192503,39.6938078 C9.06643027,39.6938078 9.00033732,39.6852858 8.93590497,39.668252 C8.53908356,39.5604949 8.30394533,39.1510778 8.41138841,38.7533891 L9.76811382,33.7289994 L9.9289236,33.1334692 L4.79627586,36.0831768 C4.6815242,36.1489578 4.55472946,36.1823648 4.42597059,36.1823648 C4.16060113,36.1823648 3.91304629,36.0422549 3.77843752,35.8079629 C3.5733335,35.4514548 3.6966048,34.9950739 4.05356577,34.7901381 L8.6524971,32.1467289 L9.18733668,31.8393097 L3.56741477,30.3217739 C3.16928917,30.2136684 2.93415094,29.8042513 3.04159402,29.4065626 C3.14851012,29.0073119 3.55612238,28.7725843 3.95573156,28.8806875 L10.9136299,30.760091 L11.1076003,30.7349444 L16.555905,27.6034319 L8.24366632,24.6336307 C7.94729626,24.5278906 7.74912906,24.2469582 7.74838205,23.9324672 C7.74763801,23.6192265 7.9451224,23.3376244 8.24101344,23.2300277 L16.0395444,20.4065773 L16.5589676,20.2185206 L11.0890201,17.0928363 L10.8950331,17.0681649 L3.94223577,18.9635631 C3.87518484,18.9816433 3.80941314,18.9906121 3.7451091,18.9906121 C3.41184131,18.9906121 3.11600658,18.7677615 3.02632583,18.4406473 C2.91830706,18.0435833 3.15243697,17.6340864 3.55028583,17.5251072 L8.57034344,16.1564558 L9.16557896,15.9941728 L4.02708987,13.0577337 C3.66986735,12.8533934 3.54548736,12.3976411 3.74964078,12.0407452 C3.95380729,11.6838264 4.40957543,11.5596728 4.76703268,11.7634011 L9.37058746,14.3945761 L9.90619196,14.7007024 L8.37518897,9.08515812 C8.26702334,8.68755605 8.50136451,8.27745899 8.8986232,8.16938674 C9.29436954,8.05983248 9.70561186,8.29515833 9.81464786,8.69321442 L11.7109742,15.645744 L11.830702,15.8003558 L17.3317976,18.9444655 L15.7343429,10.1888771 C15.6776669,9.87939602 15.8215024,9.56785898 16.0934589,9.41064578 C16.3655679,9.25259951 16.7072222,9.28263271 16.9487813,9.48530303 L23.3345058,14.8628085 L23.7546355,15.2166054 L23.7546355,8.88002755 L23.679792,8.69933938 L18.5843447,3.60389212 C18.2926407,3.31218808 18.2926407,2.8411811 18.5843447,2.54947706 C18.8760487,2.25777302 19.3470557,2.25777302 19.6387598,2.54947706 L23.7546355,6.66535275 L23.7546355,0.745735244 C23.7546355,0.334162152 24.0887976,0 24.5003707,0 C24.9119438,0 25.2461059,0.334162152 25.2461059,0.745735244 L25.2461059,6.66535275 L29.3619816,2.54947706 C29.6536857,2.25777302 30.1246927,2.25777302 30.4163967,2.54947706 C30.7081007,2.8411811 30.7081007,3.31218808 30.4163967,3.60389212 L25.3209494,8.69933938 L25.2461059,8.88002755 L25.2461059,15.18357 L31.9910517,9.45527857 C32.2323044,9.25200337 32.5733505,9.22094115 32.8461158,9.37712731 C33.1185409,9.53343693 33.2633624,9.8441642 33.2081433,10.1538389 L31.7402761,18.3963236 L31.644232,18.9356381 L37.1505454,15.7710146 L37.2699066,15.6161002 L39.1492846,8.65829654 C39.2568645,8.26136421 39.6695344,8.02548663 40.0643484,8.13241541 C40.4621099,8.23987824 40.6976812,8.64941692 40.5903543,9.04667554 L39.2336322,14.0700516 L39.072797,14.6655574 L44.2044501,11.7168968 C44.5623565,11.5118464 45.0163442,11.6346577 45.2224634,11.992379 C45.4280317,12.3483996 45.3045344,12.8047624 44.9471756,13.0099266 L40.3502414,15.6523377 L39.8154279,15.9597593 L45.4353292,17.4772895 C45.8329056,17.5847022 46.0684768,17.9942409 45.9611499,18.3914995 C45.8723422,18.7188397 45.5748259,18.9435526 45.2416146,18.9435526 C45.1776087,18.9435526 45.111436,18.9346665 45.0445932,18.9169955 L38.0881128,17.0379711 L37.8941424,17.0631177 L32.4458377,20.1946302 L40.7580763,23.1644315 C41.0530045,23.2701887 41.2516139,23.551748 41.2523594,23.865595 C41.2531044,24.1792444 41.056235,24.4605778 40.7607292,24.5680344 L32.9592241,27.3914741 L32.4396937,27.5794972 L37.9097187,30.7052258 L38.1036967,30.7298997 L45.0574954,28.8345015 C45.4526498,28.7261891 45.864774,28.9610606 45.9734318,29.35848 Z M30.8522706,26.5683797 L38.3029904,23.8714259 L30.8572769,21.2112995 L30.6440046,21.23037 L25.9999927,23.8986017 L30.6384904,26.5499521 L30.8522706,26.5683797 Z M29.9785611,19.7865521 L31.3766665,11.9321012 L25.3362294,17.0618533 L25.2461059,17.2566264 L25.2461059,22.6114005 L29.8542999,19.9633269 L29.9785611,19.7865521 Z M23.6637128,17.0902142 L17.574172,11.9615434 L19.0033506,19.7956409 L19.127926,19.9716285 L23.7546355,22.6162421 L23.7546355,17.2856632 L23.6637128,17.0902142 Z M18.1474581,21.2316891 L10.6978006,23.9286565 L18.1434645,26.5887651 L18.3567368,26.5696947 L23.0007942,23.9014369 L18.3612273,21.2500997 L18.1474581,21.2316891 Z M19.0231876,28.0134785 L17.6239388,35.8681776 L23.6645326,30.7371926 L23.7546355,30.542437 L23.7546355,25.1886121 L19.1474201,27.8367508 L19.0231876,28.0134785 Z M25.3370666,30.7108837 L31.4275528,35.8383256 L29.9983909,28.0054188 L29.8737941,27.8294245 L25.2461059,25.1848754 L25.2461059,30.5154028 L25.3370666,30.7108837 Z" id="Shape"></path>
                    </g>
                </g>
            </g>
        </g>
    </g>
</svg>