<?xml version="1.0" encoding="UTF-8"?>
<svg width="48px" height="48px" viewBox="0 0 48 48" version="1.1" xmlns="http://www.w3.org/2000/svg" xmlns:xlink="http://www.w3.org/1999/xlink">
    <!-- Generator: sketchtool 51.1 (57501) - http://www.bohemiancoding.com/sketch -->
    <title>F934EA9D-C54C-465C-A3D4-A45EA35D8E94</title>
    <desc>Created with sketchtool.</desc>
    <defs></defs>
    <g id="Page-1" stroke="none" stroke-width="1" fill="none" fill-rule="evenodd">
        <g id="Backoffice" transform="translate(-974.000000, -116.000000)" fill="#78868F" fill-rule="nonzero">
            <g id="Highlights" transform="translate(439.000000, 86.000000)">
                <g id="Group-3" transform="translate(421.000000, 21.000000)">
                    <g id="Group-4" transform="translate(138.000000, 33.000000) scale(-1, 1) translate(-138.000000, -33.000000) translate(114.000000, 9.000000)">
                        <path d="M11.000326,26.3093512 C8.15225047,26.3612354 5.32216917,25.683806 3.5619464,23.7845253 C1.65952535,21.9790703 0.98244403,19.2331516 1.00034468,16.3030656 L1.00641661,15.3091747 L2.00032601,15.3091747 C4.95996669,15.3091747 7.67254195,15.9696813 9.43832135,17.8334596 C10.1002662,18.4609992 10.6132754,19.1984022 11.000326,20.0167797 L11.000326,15.339971 L10.6511944,14.9959484 C8.71194497,13.0850773 7.32125625,10.8076832 7.32125625,8.34939795 C7.32125625,5.88377643 8.72026014,3.60855432 10.674574,1.68852664 L11.3753958,1 L12.0762175,1.68852664 C14.0276177,3.6056917 15.4206051,5.87665354 15.4206051,8.34944078 C15.4204999,10.8064871 14.036842,13.0405874 12.0553956,14.9955052 L11.7374695,15.3091747 L12.000326,15.3091747 L12.000326,19.9777737 C12.3838719,19.1825857 12.8866188,18.4672181 13.5244681,17.8713301 C15.327146,15.9690282 18.0357773,15.3091747 21.000326,15.3091747 L22.0003261,15.3091747 L22.000326,16.3090962 C22.0005596,19.28314 21.3575173,21.9189775 19.4645217,23.7595891 C17.6605226,25.688566 15.056883,26.3091747 12.000326,26.3091747 L12.000326,32.9777737 C12.3838719,32.1825857 12.8866188,31.4672181 13.5244681,30.8713301 C15.327146,28.9690282 18.0357773,28.3091747 21.000326,28.3091747 L22.0003261,28.3091747 L22.000326,29.3090962 C22.0005596,32.28314 21.3575173,34.9189775 19.4645217,36.7595891 C17.6605226,38.688566 15.056883,39.3091747 12.000326,39.3091747 L12.000326,47.3091747 L11.000326,47.3091747 L11.000326,39.3093512 C8.15225047,39.3612354 5.32216917,38.683806 3.5619464,36.7845253 C1.65952535,34.9790703 0.98244403,32.2331516 1.00034468,29.3030656 L1.00641661,28.3091747 L2.00032601,28.3091747 C4.95996669,28.3091747 7.67254195,28.9696813 9.43832135,30.8334596 C10.1002662,31.4609992 10.6132754,32.1984022 11.000326,33.0167797 L11.000326,26.3093512 Z M18.750326,36.0591747 C20.8001424,34.0811789 21.0004452,30.826672 21.0003261,29.3091747 C19.5314389,29.3091747 16.183521,29.5191429 14.250326,31.5591747 C12.1870037,33.4894504 11.9580862,36.7821333 12.000326,38.3091747 C13.4842026,38.3091747 16.813044,38.1469266 18.750326,36.0591747 Z M18.750326,23.0591747 C20.8001424,21.0811789 21.0004452,17.826672 21.0003261,16.3091747 C19.5314389,16.3091747 16.183521,16.5191429 14.250326,18.5591747 C12.1870037,20.4894504 11.9580862,23.7821333 12.000326,25.3091747 C13.4842026,25.3091747 16.813044,25.1469266 18.750326,23.0591747 Z M11.3530702,14.2836491 C12.3785958,13.2718538 14.4204935,10.9562445 14.4206051,8.34939795 C14.4206051,5.72390958 12.3934423,3.40204912 11.3753958,2.40186307 C10.3573493,3.40204912 8.32125625,5.73283981 8.32125625,8.34939795 C8.32125625,10.9547933 10.3308935,13.2764305 11.3530702,14.2836491 Z M11.000326,38.3091747 C11.0095936,36.7879495 10.7898621,33.4927039 8.75032601,31.5591747 C6.81558778,29.5193063 3.46229381,29.3091747 2.00032601,29.3091747 C1.99104802,30.8278531 2.22033308,34.1326501 4.25032601,36.0591747 C6.19460742,38.1538049 9.65299038,38.3352822 11.000326,38.3091747 Z M11.000326,25.3091747 C11.0095936,23.7879495 10.7898621,20.4927039 8.75032601,18.5591747 C6.81558778,16.5193063 3.46229381,16.3091747 2.00032601,16.3091747 C1.99104802,17.8278531 2.22033308,21.1326501 4.25032601,23.0591747 C6.19460742,25.1538049 9.65299038,25.3352822 11.000326,25.3091747 Z" id="Combined-Shape-Copy"></path>
                        <path d="M36.000326,26.3093512 C33.1522505,26.3612354 30.3221692,25.683806 28.5619464,23.7845253 C26.6595253,21.9790703 25.982444,19.2331516 26.0003447,16.3030656 L26.0064166,15.3091747 L27.000326,15.3091747 C29.9599667,15.3091747 32.6725419,15.9696813 34.4383214,17.8334596 C35.1002662,18.4609992 35.6132754,19.1984022 36.000326,20.0167797 L36.000326,15.339971 L35.6511944,14.9959484 C33.711945,13.0850773 32.3212562,10.8076832 32.3212562,8.34939795 C32.3212562,5.88377643 33.7202601,3.60855432 35.674574,1.68852664 L36.3753958,1 L37.0762175,1.68852664 C39.0276177,3.6056917 40.4206051,5.87665354 40.4206051,8.34944078 C40.4204999,10.8064871 39.036842,13.0405874 37.0553956,14.9955052 L36.7374695,15.3091747 L37.000326,15.3091747 L37.000326,19.9777737 C37.3838719,19.1825857 37.8866188,18.4672181 38.5244681,17.8713301 C40.327146,15.9690282 43.0357773,15.3091747 46.000326,15.3091747 L47.0003261,15.3091747 L47.000326,16.3090962 C47.0005596,19.28314 46.3575173,21.9189775 44.4645217,23.7595891 C42.6605226,25.688566 40.056883,26.3091747 37.000326,26.3091747 L37.000326,32.9777737 C37.3838719,32.1825857 37.8866188,31.4672181 38.5244681,30.8713301 C40.327146,28.9690282 43.0357773,28.3091747 46.000326,28.3091747 L47.0003261,28.3091747 L47.000326,29.3090962 C47.0005596,32.28314 46.3575173,34.9189775 44.4645217,36.7595891 C42.6605226,38.688566 40.056883,39.3091747 37.000326,39.3091747 L37.000326,47.3091747 L36.000326,47.3091747 L36.000326,39.3093512 C33.1522505,39.3612354 30.3221692,38.683806 28.5619464,36.7845253 C26.6595253,34.9790703 25.982444,32.2331516 26.0003447,29.3030656 L26.0064166,28.3091747 L27.000326,28.3091747 C29.9599667,28.3091747 32.6725419,28.9696813 34.4383214,30.8334596 C35.1002662,31.4609992 35.6132754,32.1984022 36.000326,33.0167797 L36.000326,26.3093512 Z M43.750326,36.0591747 C45.8001424,34.0811789 46.0004452,30.826672 46.0003261,29.3091747 C44.5314389,29.3091747 41.183521,29.5191429 39.250326,31.5591747 C37.1870037,33.4894504 36.9580862,36.7821333 37.000326,38.3091747 C38.4842026,38.3091747 41.813044,38.1469266 43.750326,36.0591747 Z M43.750326,23.0591747 C45.8001424,21.0811789 46.0004452,17.826672 46.0003261,16.3091747 C44.5314389,16.3091747 41.183521,16.5191429 39.250326,18.5591747 C37.1870037,20.4894504 36.9580862,23.7821333 37.000326,25.3091747 C38.4842026,25.3091747 41.813044,25.1469266 43.750326,23.0591747 Z M36.3530702,14.2836491 C37.3785958,13.2718538 39.4204935,10.9562445 39.4206051,8.34939795 C39.4206051,5.72390958 37.3934423,3.40204912 36.3753958,2.40186307 C35.3573493,3.40204912 33.3212562,5.73283981 33.3212562,8.34939795 C33.3212562,10.9547933 35.3308935,13.2764305 36.3530702,14.2836491 Z M36.000326,38.3091747 C36.0095936,36.7879495 35.7898621,33.4927039 33.750326,31.5591747 C31.8155878,29.5193063 28.4622938,29.3091747 27.000326,29.3091747 C26.991048,30.8278531 27.2203331,34.1326501 29.250326,36.0591747 C31.1946074,38.1538049 34.6529904,38.3352822 36.000326,38.3091747 Z M36.000326,25.3091747 C36.0095936,23.7879495 35.7898621,20.4927039 33.750326,18.5591747 C31.8155878,16.5193063 28.4622938,16.3091747 27.000326,16.3091747 C26.991048,17.8278531 27.2203331,21.1326501 29.250326,23.0591747 C31.1946074,25.1538049 34.6529904,25.3352822 36.000326,25.3091747 Z" id="Combined-Shape-Copy-2"></path>
                    </g>
                </g>
            </g>
        </g>
    </g>
</svg>