<?xml version="1.0" encoding="UTF-8"?>
<svg width="25px" height="24px" viewBox="0 0 25 24" version="1.1" xmlns="http://www.w3.org/2000/svg" xmlns:xlink="http://www.w3.org/1999/xlink">
    <!-- Generator: sketchtool 51.1 (57501) - http://www.bohemiancoding.com/sketch -->
    <title>666BEC5E-74EC-4D3B-9FA9-15511D694FBF</title>
    <desc>Created with sketchtool.</desc>
    <defs></defs>
    <g id="Page-1" stroke="none" stroke-width="1" fill="none" fill-rule="evenodd">
        <g id="Backoffice" transform="translate(-819.000000, -436.000000)" fill-rule="nonzero">
            <g id="Highlights" transform="translate(439.000000, 86.000000)">
                <g id="Group-3-Copy-4" transform="translate(20.000000, 125.000000)">
                    <g id="mini-chart" transform="translate(0.000000, 29.000000)">
                        <g id="Content" transform="translate(356.623684, 16.000000)">
                            <g id="015-corn" transform="translate(4.000000, 180.000000)">
                                <path d="M15.5335097,13.07393 C15.5876732,13.8601868 15.6315642,14.6483113 15.664249,15.4369494 L11.7898833,15.4318132 L7.82119844,15.4262101 C7.85388327,14.6385525 7.89824125,13.8508949 7.95240467,13.0650584 L7.12178988,13.0235019 C7.13626459,12.7321401 7.15307393,12.4389572 7.1722179,12.1443268 C7.20163424,11.6806693 7.23712062,11.213323 7.27821012,10.7435953 C7.3370428,10.0581946 7.40801556,9.36714397 7.48972763,8.67380545 C7.52848249,8.34415564 7.57003891,8.01455253 7.61392996,7.68396887 C7.63167315,7.54762646 7.65035019,7.41035019 7.66996109,7.27307393 C7.67603113,7.22731518 7.68256809,7.18108949 7.68910506,7.13533074 C7.78435798,6.46440467 7.9048249,5.83545525 8.05143969,5.2471751 C8.1751751,4.75176654 8.31712062,4.28535409 8.47821012,3.84644358 C9.00205447,2.41582879 9.72672374,1.28311284 10.6633307,0.421680934 C10.7380389,0.353509728 10.8220856,0.294210117 10.9136031,0.244715953 C10.9350817,0.232575875 10.9570272,0.22136965 10.9799066,0.211097276 C11.2222412,0.0948326848 11.5074864,0.0402023346 11.7899767,0.0472062257 C12.0411829,0.0532762646 12.2900545,0.107906615 12.5057276,0.211097276 C12.5617588,0.237245136 12.6154553,0.267595331 12.6663502,0.301214008 C12.7219144,0.337167315 12.7737432,0.377322957 12.8218366,0.421214008 C13.7584436,1.28311284 14.4830661,2.41582879 15.0078911,3.84644358 C15.1685136,4.28488716 15.3109261,4.75176654 15.4346615,5.2471751 C15.5808093,5.83545525 15.7012763,6.46440467 15.7965292,7.13486381 C15.8030661,7.18108949 15.8096031,7.22731518 15.8156732,7.27307393 C15.835284,7.41081712 15.8539611,7.54809339 15.8717043,7.68536965 C15.9155953,8.01548638 15.9566848,8.34508949 15.9954397,8.67380545 C16.0776187,9.36901167 16.1485914,10.0600623 16.2078911,10.7435953 C16.2485136,11.2142568 16.284,11.6816031 16.3134163,12.1443268 C16.3325603,12.4422257 16.3493696,12.738677 16.3638444,13.0328405 L15.5335097,13.07393 Z" id="Shape" fill="#FFDF48"></path>
                                <path d="M15.5335097,13.07393 C15.5876732,13.8601868 15.6315642,14.6483113 15.664249,15.4369494 L11.7898833,15.4318132 L11.7898833,0.0472996109 C12.0410895,0.0533696498 12.2899611,0.108 12.5056342,0.211190661 C12.5616654,0.237338521 12.6153619,0.267688716 12.6662568,0.301307393 C12.721821,0.3372607 12.7736498,0.377416342 12.8217432,0.421307393 C13.7583502,1.28320623 14.4829728,2.41592218 15.0077977,3.84653696 C15.1684202,4.28498054 15.3108327,4.75185992 15.4345681,5.24726848 C15.580716,5.83554864 15.7011829,6.46449805 15.7964358,7.1349572 C15.8029728,7.18118288 15.8095097,7.22740856 15.8155798,7.27316732 C15.8351907,7.41091051 15.8538677,7.54818677 15.8716109,7.68546304 C15.9155019,8.01557977 15.9565914,8.34518288 15.9953463,8.67389883 C16.0775253,9.36910506 16.1484981,10.0601556 16.2077977,10.7436887 C16.2484202,11.2143502 16.2839066,11.6816965 16.313323,12.1444202 C16.3324669,12.4423191 16.3492763,12.7387704 16.363751,13.0329339 L15.5335097,13.07393 Z" id="Shape" fill="#FFD400"></path>
                                <path d="M16.1245447,12.3425837 C13.348249,12.3425837 11.0895409,14.6012918 11.0895409,17.3775875 L11.0895409,23.9533074 L12.5018054,23.9533074 C15.2781012,23.9533074 17.5368093,21.6945992 17.5368093,18.9183035 L17.5368093,12.3425837 L16.1245447,12.3425837 Z" id="Shape" fill="#92D700"></path>
                                <path d="M7.45522179,12.3425837 L6.0429572,12.3425837 L6.0429572,18.9183035 C6.0429572,21.6945992 8.30161868,23.9533074 11.0779611,23.9533074 L12.4902724,23.9533074 L12.4902724,17.3775875 C12.4902257,14.6012918 10.2315175,12.3425837 7.45522179,12.3425837 Z" id="Shape" fill="#BDF052"></path>
                                <path d="M9.59869261,3.84649027 L9.59869261,5.24722179 L8.0513463,5.24722179 C8.17508171,4.75181323 8.31702724,4.28540078 8.47811673,3.84649027 L9.59869261,3.84649027 Z" id="Shape" fill="#FFB13B"></path>
                                <path d="M15.4345681,5.24722179 L13.9810739,5.24722179 L13.9810739,3.84649027 L15.0077977,3.84649027 C15.1684202,4.28493385 15.310786,4.75181323 15.4345681,5.24722179 Z" id="Shape" fill="#FF9500"></path>
                                <g id="Group" transform="translate(7.447471, 0.186770)" fill="#FFB13B">
                                    <rect id="Rectangle-path" x="3.46599222" y="7.08621012" width="1.75274708" height="1.40073152"></rect>
                                    <rect id="Rectangle-path" x="3.46599222" y="3.65957977" width="1.75274708" height="1.40073152"></rect>
                                    <path d="M5.21878599,0.114536965 L5.21878599,1.42515175 L3.46603891,1.42515175 L3.46603891,0.0580389105 C3.48751751,0.0458988327 3.50946304,0.034692607 3.53234241,0.0244202335 L5.05821012,0.0244202335 C5.11419455,0.0505680934 5.16789105,0.0809182879 5.21878599,0.114536965 Z" id="Shape"></path>
                                    <path d="M1.81923735,7.08635019 L1.81923735,8.48708171 L0.0422101167,8.48708171 C0.0809649805,8.15743191 0.122521401,7.82782879 0.166412451,7.49724514 C0.184155642,7.36090272 0.202832685,7.22362646 0.22244358,7.08635019 L1.81923735,7.08635019 Z" id="Shape"></path>
                                </g>
                                <path d="M15.9952996,8.67380545 L14.2593619,8.67380545 L14.2593619,7.27307393 L15.8155798,7.27307393 C15.8351907,7.41081712 15.8538677,7.54809339 15.8716109,7.68536965 C15.9154553,8.01548638 15.9565447,8.34513619 15.9952996,8.67380545 Z" id="Shape" fill="#FF9500"></path>
                                <g id="Group" transform="translate(7.167315, 10.739300)" fill="#FFB13B">
                                    <rect id="Rectangle-path" x="3.74614786" y="0.00415564202" width="1.75274708" height="1.40073152"></rect>
                                    <path d="M1.98873152,0.00429571984 L1.98873152,1.40502724 L0.00485603113,1.40502724 C0.0342723735,0.94136965 0.0697587549,0.474023346 0.110848249,0.00429571984 L1.98873152,0.00429571984 Z" id="Shape"></path>
                                </g>
                                <g id="Group" transform="translate(11.743191, 0.186770)" fill="#FF9500">
                                    <path d="M4.5700856,11.9575564 L2.61329183,11.9575564 L2.61329183,10.5568249 L4.46456031,10.5568249 C4.50518288,11.0274864 4.54066926,11.4948794 4.5700856,11.9575564 Z" id="Shape"></path>
                                    <path d="M0.923066148,0.114536965 L0.923066148,1.42515175 L0.046692607,1.42515175 L0.046692607,0.0244202335 L0.76244358,0.0244202335 C0.818474708,0.0505680934 0.872171206,0.0809182879 0.923066148,0.114536965 Z" id="Shape"></path>
                                    <rect id="Rectangle-path" x="0.0466459144" y="3.65957977" width="1" height="1.40073152"></rect>
                                    <rect id="Rectangle-path" x="0.0466459144" y="7.08621012" width="1" height="1.40073152"></rect>
                                    <rect id="Rectangle-path" x="0.0466459144" y="10.5566848" width="1" height="1.40073152"></rect>
                                </g>
                            </g>
                        </g>
                    </g>
                </g>
            </g>
        </g>
    </g>
</svg>