<?xml version="1.0" encoding="UTF-8"?>
<svg width="25px" height="24px" viewBox="0 0 25 24" version="1.1" xmlns="http://www.w3.org/2000/svg" xmlns:xlink="http://www.w3.org/1999/xlink">
    <!-- Generator: sketchtool 51.1 (57501) - http://www.bohemiancoding.com/sketch -->
    <title>38492EAA-148B-4140-8186-8E92EA601071</title>
    <desc>Created with sketchtool.</desc>
    <defs></defs>
    <g id="Page-1" stroke="none" stroke-width="1" fill="none" fill-rule="evenodd">
        <g id="Backoffice" transform="translate(-819.000000, -627.000000)" fill-rule="nonzero">
            <g id="Highlights" transform="translate(439.000000, 86.000000)">
                <g id="Group-3-Copy-4" transform="translate(20.000000, 125.000000)">
                    <g id="mini-chart" transform="translate(0.000000, 29.000000)">
                        <g id="Content" transform="translate(356.623684, 16.000000)">
                            <g id="012-eggplant" transform="translate(4.000000, 371.000000)">
                                <path d="M21.3655673,8.87153216 C20.9009591,9.31214035 17.5493333,12.2345731 15.6629708,15.4681637 C15.3925614,15.9317895 15.1198129,16.4403275 14.8306901,16.9788538 C13.3274854,19.7812398 11.4565614,23.2685848 7.95990643,23.7780585 C7.34470175,23.8669942 6.93843275,23.8492164 6.79728655,23.8519766 C4.00051462,23.7977076 2.25356725,22.0591813 2.02994152,21.8233918 C1.76327485,21.5702924 -0.429988304,19.3643977 0.0752748538,15.8934269 C0.584795322,12.3967719 4.07209357,10.525848 6.87452632,9.02264327 C7.41300585,8.73352047 7.92154386,8.46077193 8.38521637,8.19036257 C11.0425731,6.64037427 13.5656608,4.03307602 14.5271111,2.98418713 L14.9781053,2.49202339 C15.3267368,2.70250292 15.8890292,3.59864327 17.083883,3.17132164 L18.5842807,2.63190643 L17.9686082,4.10283041 C17.7767953,4.5645848 17.4764444,5.60556725 17.5999532,6.25352047 L17.5999532,6.2539883 C18.7562105,6.47270175 20.5170526,5.53211696 21.2173567,5.27153216 C20.7156491,6.71602339 20.6177778,6.84945029 20.5792281,7.20795322 C20.4895906,8.04589474 21.0644678,8.46479532 21.3655673,8.87153216 Z" id="Shape" fill="#BF4CD9"></path>
                                <path d="M21.3655673,8.87153216 C20.9009591,9.31214035 17.5493333,12.2345731 15.6629708,15.4681637 C15.3925614,15.9317895 15.1198129,16.4403275 14.8306901,16.9788538 C13.3274854,19.7812398 11.4565614,23.2685848 7.95990643,23.7780585 C7.31092398,23.8719064 6.88575439,23.8489357 6.79728655,23.8519766 C4.00051462,23.7977076 2.25356725,22.0591813 2.02994152,21.8233918 L17.5998596,6.25394152 C18.756117,6.47265497 20.5169591,5.53207018 21.2172632,5.27148538 C20.7155556,6.71597661 20.6176842,6.84940351 20.5791345,7.20790643 C20.4895906,8.04589474 21.0644678,8.46479532 21.3655673,8.87153216 Z" id="Shape" fill="#9430A1"></path>
                                <path d="M22.6166082,2.76659649 C24.9371696,6.68472515 20.8440702,9.8531462 20.7489591,10.020538 C20.3363275,9.7065731 20.1407719,9.59447953 19.8586667,9.25422222 C19.4432281,8.75410526 19.2065029,8.15574269 19.1714152,7.53207018 C17.3265965,7.95752047 16.6446316,7.35644444 16.5220117,7.33277193 C16.4979181,7.20893567 15.8965146,6.53038596 16.3194386,4.68523977 C15.5100819,4.64266667 14.9182222,4.26559064 14.5963509,3.99845614 C14.2655906,3.72421053 14.1808655,3.56977778 13.8295673,3.10909942 C14.0997427,2.89768421 15.9083977,0.540163743 18.6160936,0.540163743 C18.6495439,0.549754386 20.2189474,0.443695906 21.7230409,1.68079532 C22.4678363,1.01319298 22.5515789,0.0185263158 22.5525146,0.00729824561 L23.7722105,0.0812163743 L23.9532632,0.0924444444 C23.9490058,0.166783626 23.8395322,1.71209357 22.6166082,2.76659649 Z" id="Shape" fill="#11A892"></path>
                                <path d="M22.6166082,2.76659649 C24.9371696,6.68472515 20.8440702,9.8531462 20.7489591,10.020538 C20.3363275,9.7065731 20.1407719,9.59447953 19.8586667,9.25422222 C19.4432281,8.75410526 19.2065029,8.15574269 19.1714152,7.53207018 C17.3265965,7.95752047 16.6446316,7.35644444 16.5220117,7.33277193 L16.5215439,7.33183626 L23.7721637,0.0811695906 L23.9532164,0.0923976608 C23.9490058,0.166783626 23.8395322,1.71209357 22.6166082,2.76659649 Z" id="Shape" fill="#0F9887"></path>
                            </g>
                        </g>
                    </g>
                </g>
            </g>
        </g>
    </g>
</svg>