<?xml version="1.0" encoding="UTF-8"?>
<svg width="25px" height="24px" viewBox="0 0 25 24" version="1.1" xmlns="http://www.w3.org/2000/svg" xmlns:xlink="http://www.w3.org/1999/xlink">
    <!-- Generator: sketchtool 51.1 (57501) - http://www.bohemiancoding.com/sketch -->
    <title>183ED238-F250-4ACD-89C5-BCD8B014A0F7</title>
    <desc>Created with sketchtool.</desc>
    <defs></defs>
    <g id="Page-1" stroke="none" stroke-width="1" fill="none" fill-rule="evenodd">
        <g id="Backoffice" transform="translate(-819.000000, -722.000000)" fill-rule="nonzero">
            <g id="Highlights" transform="translate(439.000000, 86.000000)">
                <g id="Group-3-Copy-4" transform="translate(20.000000, 125.000000)">
                    <g id="mini-chart" transform="translate(0.000000, 29.000000)">
                        <g id="Content" transform="translate(356.623684, 16.000000)">
                            <g id="014-broccoli" transform="translate(4.000000, 466.000000)">
                                <path d="M16.0141654,14.7540524 C15.2910219,16.3837618 14.4293944,19.1011671 14.4293944,22.7902534 L14.4293944,23.478088 L8.59013716,23.478088 L8.59013716,22.7902534 C8.59013716,19.1007085 7.72850967,16.3837618 7.00536622,14.7540524 L7.63404705,14.4752501 L8.26272788,14.1959892 C8.30262229,14.2858663 8.34297526,14.3794118 8.38332822,14.4752501 L14.6362034,14.4752501 C14.6765563,14.3794118 14.7169093,14.2858663 14.7568037,14.1959892 L15.3854845,14.4752501 L16.0141654,14.7540524 Z" id="Shape" fill="#11A892"></path>
                                <path d="M16.0141654,14.7540524 C15.2910219,16.3837618 14.4293944,19.1011671 14.4293944,22.7902534 L14.4293944,23.478088 L11.5097658,23.478088 L11.5097658,14.4752501 L14.6362034,14.4752501 C14.6765563,14.3794118 14.7169093,14.2858663 14.7568037,14.1959892 L15.3854845,14.4752501 L16.0141654,14.7540524 Z" id="Shape" fill="#0F9887"></path>
                                <path d="M22.9787201,12.2966486 C22.9787201,14.7655163 20.970243,16.7744519 18.5009168,16.7744519 C17.2848252,16.7744519 16.1411855,16.2851722 15.3070714,15.4345501 C14.2899933,16.4080653 12.9455059,16.9528303 11.5097658,16.9528303 C10.0740257,16.9528303 8.72953831,16.4080653 7.7124602,15.4345501 C6.87834609,16.2851722 5.73470642,16.7744519 4.51861483,16.7744519 C2.04928858,16.7744519 0.0408115202,14.7655163 0.0408115202,12.2966486 C0.0408115202,10.6788616 0.909317354,9.20368563 2.29094781,8.41175872 C2.29048925,8.38974801 2.29003069,8.36727874 2.29003069,8.34480948 C2.29003069,6.38310518 3.84866392,4.77815775 5.79294308,4.70387162 C6.0272654,3.50245383 6.6353112,2.40375268 7.54417,1.55863322 C8.62498745,0.553477582 10.0332142,0 11.5097658,0 C12.9863174,0 14.3945441,0.553477582 15.4753616,1.55863322 C16.3842204,2.40375268 16.9922662,3.50245383 17.2265885,4.70387162 C19.1708677,4.77815775 20.7295009,6.38310517 20.7295009,8.34480948 C20.7295009,8.36727874 20.7290423,8.38974801 20.7285838,8.41175872 C22.1102142,9.20368563 22.9787201,10.6788616 22.9787201,12.2966486 Z" id="Shape" fill="#00DD7E"></path>
                                <path d="M22.9787201,12.2966486 C22.9787201,14.7655163 20.970243,16.7744519 18.5009168,16.7744519 C17.2848252,16.7744519 16.1411855,16.2851722 15.3070714,15.4345501 C14.2899933,16.4080653 12.9455059,16.9528303 11.5097658,16.9528303 L11.5097658,0 C12.9863174,0 14.3945441,0.553477582 15.4753616,1.55863322 C16.3842204,2.40375268 16.9922662,3.50245383 17.2265885,4.70387162 C19.1708677,4.77815775 20.7295009,6.38310517 20.7295009,8.34480948 C20.7295009,8.36727874 20.7290423,8.38974801 20.7285838,8.41175872 C22.1102142,9.20368563 22.9787201,10.6788616 22.9787201,12.2966486 Z" id="Shape" fill="#00CB7E"></path>
                            </g>
                        </g>
                    </g>
                </g>
            </g>
        </g>
    </g>
</svg>