<?xml version="1.0" encoding="UTF-8"?>
<svg width="25px" height="24px" viewBox="0 0 25 24" version="1.1" xmlns="http://www.w3.org/2000/svg" xmlns:xlink="http://www.w3.org/1999/xlink">
    <!-- Generator: sketchtool 51.1 (57501) - http://www.bohemiancoding.com/sketch -->
    <title>A9B0C567-9D52-4DC1-917F-A9346D464BBA</title>
    <desc>Created with sketchtool.</desc>
    <defs></defs>
    <g id="Page-1" stroke="none" stroke-width="1" fill="none" fill-rule="evenodd">
        <g id="Backoffice" transform="translate(-819.000000, -579.000000)" fill-rule="nonzero">
            <g id="Highlights" transform="translate(439.000000, 86.000000)">
                <g id="Group-3-Copy-4" transform="translate(20.000000, 125.000000)">
                    <g id="mini-chart" transform="translate(0.000000, 29.000000)">
                        <g id="Content" transform="translate(356.623684, 16.000000)">
                            <g id="001-mango" transform="translate(4.000000, 323.000000)">
                                <path d="M17.8757812,7.36282813 L16.7990625,6.4540625 L17.3374219,6.90846875 L16.7970469,6.4565 C16.8587812,6.38196875 18.2939531,4.61098438 16.9913437,2.86278125 L18.1211719,2.02095313 C18.9426094,3.12340625 19.1577656,4.4039375 18.7433906,5.724125 C18.4467187,6.6693125 17.9332969,7.294625 17.8757812,7.36282813 Z" id="Shape" fill="#C27B48"></path>
                                <path d="M19.6458281,11.6766875 C19.6458281,13.5585781 19.0188281,15.4555156 17.8160625,16.9889375 C16.9274531,18.1212969 15.775875,19.1582656 14.4857344,19.9872031 C13.2172031,20.8025 11.8415625,21.4008594 10.5073125,21.717875 C9.59240625,21.9348594 8.67239063,22.0414531 7.771125,22.0414531 C5.92209375,22.0414531 4.15289063,21.5938906 2.66690625,20.7372031 C2.2831875,20.5164687 1.91873437,20.2685 1.57682812,19.9941875 C0.54215625,19.1644062 -0.374625,17.7887656 0.1546875,16.4159844 C0.384328125,15.8195 0.83053125,15.40625 1.18935937,15.0746562 C2.73309375,13.6459531 3.5911875,12.4577187 4.15054687,10.9731406 C4.8945,8.99825 5.82159375,7.51789062 6.98395313,6.44754687 C8.34923438,5.19073437 10.0489219,4.52009375 12.0355781,4.45385937 C13.5412969,4.40407812 14.9526094,4.70557812 16.1173594,5.32648437 C16.7387344,5.65760937 17.2830469,6.0704375 17.7475313,6.56075 C17.8278281,6.64432812 17.9048438,6.73029687 17.9795625,6.81907812 C18.3839531,7.29720312 18.7197188,7.84104687 18.9850781,8.44971875 C19.4293125,9.468875 19.6458281,10.5702031 19.6458281,11.6766875 Z" id="Shape" fill="#FFB13B"></path>
                                <path d="M19.6458281,11.6766875 C19.6458281,13.5585781 19.0188281,15.4555156 17.8160625,16.9889375 C16.9274531,18.1212969 15.775875,19.1582656 14.4857344,19.9872031 C13.2172031,20.8025 11.8415625,21.4008594 10.5073125,21.717875 C9.59240625,21.9348594 8.67239063,22.0414531 7.771125,22.0414531 C5.92209375,22.0414531 4.15289063,21.5938906 2.66690625,20.7372031 L17.7475313,6.56070313 L17.9795625,6.81903125 C18.3839531,7.29715625 18.7197188,7.841 18.9850781,8.44967188 C19.4293125,9.468875 19.6458281,10.5702031 19.6458281,11.6766875 Z" id="Shape" fill="#FF9500"></path>
                                <path d="M24,4.36048437 C22.3052344,6.58732812 20.1906094,6.71075 18.2780625,4.37801562 C20.0773125,2.15225 22.08525,2.05676562 24,4.36048437 Z" id="Shape" fill="#11A892"></path>
                                <path d="M24,4.36048438 C22.3052344,6.58732813 20.1906094,6.71075 18.2780625,4.37801563 L24,4.36048438 Z" id="Shape" fill="#0F9887"></path>
                            </g>
                        </g>
                    </g>
                </g>
            </g>
        </g>
    </g>
</svg>