<?xml version="1.0" encoding="UTF-8"?>
<svg width="25px" height="24px" viewBox="0 0 25 24" version="1.1" xmlns="http://www.w3.org/2000/svg" xmlns:xlink="http://www.w3.org/1999/xlink">
    <!-- Generator: sketchtool 51.1 (57501) - http://www.bohemiancoding.com/sketch -->
    <title>82EED4F3-6E69-4F08-A75A-E43A8829BFCF</title>
    <desc>Created with sketchtool.</desc>
    <defs></defs>
    <g id="Page-1" stroke="none" stroke-width="1" fill="none" fill-rule="evenodd">
        <g id="Backoffice" transform="translate(-819.000000, -388.000000)" fill-rule="nonzero">
            <g id="Highlights" transform="translate(439.000000, 86.000000)">
                <g id="Group-3-Copy-4" transform="translate(20.000000, 125.000000)">
                    <g id="mini-chart" transform="translate(0.000000, 29.000000)">
                        <g id="Content" transform="translate(356.623684, 16.000000)">
                            <g id="011-avocado" transform="translate(4.000000, 132.000000)">
                                <path d="M13.1551719,3.77048438 L11.7508906,3.65803125 C11.7599844,3.541875 11.9991406,0.8041875 14.1819688,0 L14.669,1.32192188 C13.3369063,1.81265625 13.1568125,3.75098438 13.1551719,3.77048438 Z" id="Shape" fill="#C27B48"></path>
                                <path d="M17.9333281,20.7475312 C16.7400781,22.4385469 14.6212344,23.2514531 12.5432656,23.294625 C12.5132187,23.2950937 12.4831719,23.2955625 12.453125,23.2955625 C12.4230781,23.2955625 12.3930312,23.2950937 12.3629844,23.294625 C10.2850156,23.2514062 8.16617187,22.4385469 6.97292187,20.7475312 C5.13490625,18.1431562 5.53690625,14.2055625 6.96964062,11.5133437 C7.7759375,9.9984375 8.72595312,9.02634375 9.09645312,7.32735937 C9.91821875,3.56020312 12.453125,3.71329687 12.453125,3.71329687 C12.453125,3.71329687 14.9880312,3.56020312 15.8097969,7.3273125 C16.1802969,9.02629687 17.1303125,9.99839062 17.9366094,11.5132969 C19.3693437,14.2055156 19.7713437,18.1431094 17.9333281,20.7475312 Z" id="Shape" fill="#00DD7E"></path>
                                <path d="M18.5583594,11.1822656 C18.2878906,10.6741406 18.0084688,10.234125 17.7379531,9.80821875 C17.1936875,8.95120313 16.7231563,8.21109375 16.4977344,7.17754688 C16.0192344,4.982625 14.9729375,3.96642188 14.1798125,3.50010938 C13.3683594,3.02348438 12.6470469,3.00421875 12.4530781,3.0084375 C12.259625,3.00375 11.5378438,3.02348438 10.7263438,3.50010938 C9.93317188,3.96642188 8.88692188,4.982625 8.40842188,7.17754688 C8.183,8.21114063 7.71246875,8.95120313 7.16820313,9.80821875 C6.89773438,10.234125 6.6183125,10.6741406 6.34779688,11.1822656 C4.90095313,13.90125 4.29940625,18.1811719 6.39757813,21.1537031 C7.6180625,22.8827813 9.8425625,23.9464219 12.3501875,23.9990156 C12.3835156,23.9994844 12.4173594,23.9999531 12.4530313,23.9999531 C12.4535,23.9999531 12.4535,23.9999531 12.4539688,23.9999531 C12.4882344,23.9999531 12.5220781,23.9994844 12.55775,23.9990156 C15.0635469,23.9464219 17.2884688,22.8827813 18.5084844,21.1537031 C20.60675,18.1811719 20.0052031,13.90125 18.5583594,11.1822656 Z M17.3576094,20.3413125 C16.3944688,21.7064531 14.5888438,22.5474844 12.5301406,22.5902344 C12.503375,22.5907031 12.4780156,22.5911719 12.453125,22.5911719 C12.4268281,22.5911719 12.4019375,22.5907031 12.3779844,22.5902344 C10.3174063,22.5474844 8.51225,21.7064531 7.54864063,20.3413125 C5.87215625,17.9660625 6.30139063,14.2689375 7.59139063,11.8439531 C7.8365,11.3842031 8.10139063,10.9667344 8.35779688,10.5638438 C8.92226563,9.67490625 9.50595313,8.755875 9.78490625,7.47764063 C10.4343594,4.4994375 12.2122813,4.41632813 12.4062031,4.41632813 C12.4094844,4.41632813 12.4122969,4.41679688 12.4146406,4.41679688 L12.4428125,4.41960938 L12.453125,4.41914063 L12.4954063,4.41632813 C12.5146719,4.41539063 14.4362656,4.33603125 15.1213906,7.47764063 C15.4003438,8.755875 15.9840313,9.67490625 16.5485,10.5638438 C16.6767031,10.7653125 16.80725,10.9705313 16.9359219,11.1827813 C17.0645938,11.3950313 17.1923281,11.6138906 17.3149063,11.8439531 C18.6048594,14.2689375 19.0340469,17.9660625 17.3576094,20.3413125 Z" id="Shape" fill="#11A892"></path>
                                <path d="M16.0457188,16.0600781 C16.0457188,17.1745313 15.6857656,18.2272969 15.0331719,19.0244063 C14.3519375,19.8561563 13.4352969,20.3140781 12.4530781,20.3140781 C11.4708594,20.3140781 10.5542656,19.8561563 9.87298438,19.0244063 C9.22039063,18.22725 8.86048438,17.1745313 8.86048438,16.0600781 C8.86048438,14.952375 9.2208125,13.8120469 9.849125,12.9321094 C10.5470938,11.9534063 11.4720781,11.4147188 12.4530781,11.4147188 C13.4341719,11.4147188 14.3590625,11.9534531 15.0570313,12.9321094 C15.6853906,13.8120469 16.0457188,14.952375 16.0457188,16.0600781 Z" id="Shape" fill="#C27B48"></path>
                                <path d="M17.9333281,20.7475312 C16.7400781,22.4385469 14.6212344,23.2514531 12.5432656,23.294625 C12.5132188,23.2950937 12.4831719,23.2955625 12.453125,23.2955625 L12.453125,3.71329687 C12.453125,3.71329687 14.9880312,3.56020312 15.8097969,7.3273125 C16.1802969,9.02629687 17.1303125,9.99839062 17.9366094,11.5132969 C19.3693437,14.2055156 19.7713437,18.1431094 17.9333281,20.7475312 Z" id="Shape" fill="#00CB7E"></path>
                                <path d="M12.4530781,20.3140781 L12.4530781,11.4147188 C13.4341719,11.4147188 14.3590625,11.9534531 15.0570313,12.9321094 C15.6853438,13.8120469 16.0456719,14.952375 16.0456719,16.0600781 C16.0456719,17.1745313 15.6857188,18.2272969 15.033125,19.0244063 C14.3519375,19.8562031 13.4353438,20.3140781 12.4530781,20.3140781 Z" id="Shape" fill="#A66235"></path>
                                <path d="M18.5085781,21.1537031 C17.2885625,22.8827813 15.0635938,23.9464219 12.5578437,23.9990156 C12.5221719,23.9994844 12.4883281,23.9999531 12.4540625,23.9999531 C12.4535938,23.9999531 12.4535938,23.9999531 12.453125,23.9999531 L12.453125,22.5911719 C12.4780156,22.5911719 12.503375,22.5907031 12.5301406,22.5902344 C14.5888437,22.5474844 16.3944688,21.7064531 17.3576094,20.3413125 C19.0340937,17.9660625 18.6048594,14.2689375 17.3148594,11.8439531 C17.1922812,11.6138438 17.0645469,11.3950313 16.935875,11.1827813 C16.8072031,10.9705313 16.6766563,10.7653125 16.5484531,10.5638438 C15.9839844,9.67490625 15.4002969,8.755875 15.1213438,7.47764063 C14.4362188,4.33603125 12.514625,4.41539063 12.4953594,4.41632813 L12.453125,4.41909375 L12.453125,3.0084375 C12.6470469,3.00421875 13.3683594,3.02348438 14.1798594,3.50010938 C14.9730313,3.96642188 16.0192812,4.982625 16.4977812,7.17754688 C16.7232031,8.21114063 17.1937344,8.95120313 17.738,9.80821875 C18.0084687,10.234125 18.2878906,10.6741406 18.5584063,11.1822656 C20.0052031,13.90125 20.60675,18.1811719 18.5085781,21.1537031 Z" id="Shape" fill="#0F9887"></path>
                            </g>
                        </g>
                    </g>
                </g>
            </g>
        </g>
    </g>
</svg>