<?xml version="1.0" encoding="UTF-8"?>
<svg width="25px" height="24px" viewBox="0 0 25 24" version="1.1" xmlns="http://www.w3.org/2000/svg" xmlns:xlink="http://www.w3.org/1999/xlink">
    <!-- Generator: sketchtool 51.1 (57501) - http://www.bohemiancoding.com/sketch -->
    <title>90C18733-942D-4810-AD5B-D92ECE744DC3</title>
    <desc>Created with sketchtool.</desc>
    <defs></defs>
    <g id="Page-1" stroke="none" stroke-width="1" fill="none" fill-rule="evenodd">
        <g id="Backoffice" transform="translate(-819.000000, -293.000000)" fill-rule="nonzero">
            <g id="Highlights" transform="translate(439.000000, 86.000000)">
                <g id="Group-3-Copy-4" transform="translate(20.000000, 125.000000)">
                    <g id="mini-chart" transform="translate(0.000000, 29.000000)">
                        <g id="Content" transform="translate(356.623684, 16.000000)">
                            <g id="004-apple" transform="translate(4.000000, 37.000000)">
                                <path d="M13.2882031,6.27089063 C12.4129531,6.13875 12.7735156,6.19265625 11.8973281,6.063 C12.0835156,4.78073438 11.7288125,2.77246875 10.1295781,1.84959375 L10.8324219,0.6315 C12.8788437,1.812375 13.5798594,4.33364063 13.2882031,6.27089063 Z" id="Shape" fill="#C27B48"></path>
                                <path d="M18.6303125,1.783875 C18.1342813,2.22989062 15.9903125,4.874625 13.7854531,4.425 C12.6987969,4.2028125 12.0753125,3.29615625 11.8779687,2.79548438 L11.8203125,2.64923438 C11.910125,1.413 12.4992031,0.627796875 13.2182187,0.264046875 C14.3447187,-0.306 15.9193438,0.047953125 17.8990156,1.31554688 L18.6303125,1.783875 Z" id="Shape" fill="#11A892"></path>
                                <path d="M19.9405625,20.4653906 C19.0766094,21.4981406 18.1254219,22.3611562 17.112875,23.0310469 C16.5291875,23.4172969 15.6483594,24 14.7122188,24 L14.7056563,24 C13.7207188,23.9971875 12.9087969,23.6789062 12.4531719,23.4510469 C11.9975,23.6788594 11.1855781,23.9971875 10.2006875,24 L10.194125,24 C9.25798438,24 8.37710938,23.4172969 7.79346875,23.031 C6.780875,22.3611094 5.82926563,21.4980937 4.96578125,20.4653437 C2.073875,17.0080781 1.223,12.5091562 2.74470313,8.72465625 C3.69021875,6.3736875 5.6999375,4.91578125 8.12117188,4.824375 C8.8060625,4.79859375 9.52892188,4.86234375 10.3962031,5.0240625 C10.6905781,5.079375 10.9779688,5.16140625 11.2559375,5.240625 C11.5986406,5.33859375 11.9234844,5.4309375 12.2197344,5.4628125 L12.6866563,5.4628125 C12.9829063,5.4309375 13.3077969,5.33859375 13.6504531,5.240625 C13.9284219,5.16140625 14.2158125,5.079375 14.5101875,5.0240625 C15.3774219,4.86234375 16.0998125,4.79859375 16.7851719,4.824375 C19.2064531,4.91578125 21.216125,6.3736875 22.1616406,8.72465625 C23.6832969,12.5091562 22.8324688,17.0080781 19.9405625,20.4653906 Z" id="Shape" fill="#FF475A"></path>
                                <path d="M18.6303125,1.783875 C18.1342813,2.22989062 15.9903125,4.874625 13.7854531,4.425 C12.6987969,4.2028125 12.0753125,3.29615625 11.8779687,2.79548438 L11.8203125,2.64923438 L18.6303125,1.783875 Z" id="Shape" fill="#0F9887"></path>
                                <path d="M19.9405625,20.4653906 C19.0766094,21.4981406 18.1254219,22.3611562 17.112875,23.0310469 C16.5291875,23.4172969 15.6483594,24 14.7122187,24 L14.7056562,24 C13.7207187,23.9971875 12.9087969,23.6789062 12.4531719,23.4510469 L12.4531719,5.46285937 L12.6866094,5.46285937 C12.9828594,5.43098437 13.30775,5.33864062 13.6504062,5.24067187 C13.928375,5.16145312 14.2157656,5.07942187 14.5101406,5.02410937 C15.377375,4.86239062 16.0997656,4.79864062 16.785125,4.82442187 C19.2064062,4.91582812 21.2160781,6.37373437 22.1615937,8.72470312 C23.6832969,12.5091562 22.8324687,17.0080781 19.9405625,20.4653906 Z" id="Shape" fill="#E5104D"></path>
                            </g>
                        </g>
                    </g>
                </g>
            </g>
        </g>
    </g>
</svg>