<?xml version="1.0" encoding="UTF-8"?>
<svg width="25px" height="24px" viewBox="0 0 25 24" version="1.1" xmlns="http://www.w3.org/2000/svg" xmlns:xlink="http://www.w3.org/1999/xlink">
    <!-- Generator: sketchtool 51.1 (57501) - http://www.bohemiancoding.com/sketch -->
    <title>61335C3B-95CE-4A01-BD50-09847B3EA5A5</title>
    <desc>Created with sketchtool.</desc>
    <defs></defs>
    <g id="Page-1" stroke="none" stroke-width="1" fill="none" fill-rule="evenodd">
        <g id="Backoffice-Copy" transform="translate(-748.000000, -676.000000)" fill-rule="nonzero">
            <g id="Highlights" transform="translate(439.000000, 86.000000)">
                <g id="Group-3-Copy-4" transform="translate(20.000000, 125.000000)">
                    <g id="mini-chart" transform="translate(0.000000, 45.000000)">
                        <g id="Content" transform="translate(285.623684, 0.000000)">
                            <g id="002-banana" transform="translate(4.000000, 420.000000)">
                                <path d="M23.6589006,10.9786374 C23.3928538,12.8810019 22.7539649,14.6746433 21.7602573,16.3101092 C20.8210682,17.8553236 19.5881696,19.2242943 18.0957251,20.3785536 C13.7543743,23.7371813 8.03871735,24.5991657 3.95099415,23.5110819 C3.89593762,23.4962865 3.84182261,23.4814464 3.78766277,23.4657544 C2.75965692,23.1715068 1.91076413,22.7245984 1.26210136,22.1370897 L1.01506433,21.9131871 L1.10988889,20.3638031 L1.20892788,18.7496335 C1.75967251,18.6927388 2.45886355,18.6357544 3.78766277,18.3536121 C5.66595127,17.959922 8.68191033,17.1257797 11.2939571,15.4935867 C13.2481501,14.2727037 14.6661696,12.7991793 15.5090546,11.1133197 L15.5182904,11.096193 C15.7371267,10.6862729 16.3362476,9.44875634 16.4732164,8.65344055 C16.6249805,7.77347758 17.1491384,6.43369396 17.942078,5.57135088 C18.2090214,5.28082456 18.5421404,5.0587154 18.9159688,4.91995322 L18.9159688,1 L22.4167212,1 L22.4167212,5.1845653 C23.7357018,6.53824756 23.9207329,9.10680507 23.6589006,10.9786374 Z" id="Shape" fill="#FFDF48"></path>
                                <path d="M23.6589006,10.9786374 C23.3928538,12.8810019 22.7539649,14.6746433 21.7602573,16.3101092 C20.8210682,17.8553236 19.5881696,19.2242943 18.0957251,20.3785536 C13.7543743,23.7371813 8.03871735,24.5991657 3.95099415,23.5110819 C3.89593762,23.4962865 3.84182261,23.4814464 3.78766277,23.4657544 C2.75965692,23.1715068 1.91076413,22.7245984 1.26210136,22.1370897 L1.01506433,21.9131871 L1.10988889,20.3638031 C23.6871014,23.4657096 20.7724678,1 20.7724678,1 L22.4166764,1 L22.4166764,5.1845653 C23.7357018,6.53824756 23.9207329,9.10680507 23.6589006,10.9786374 Z" id="Shape" fill="#FFD400"></path>
                                <path d="M3.78766277,18.3535224 L3.78766277,23.4656647 C2.75965692,23.1714172 1.91076413,22.7245088 1.26210136,22.137 L1.01506433,21.9130975 L1.10988889,20.3637135 L1.20892788,18.7495887 C1.75967251,18.6926491 2.45881871,18.6356647 3.78766277,18.3535224 Z" id="Shape" fill="#C27B48"></path>
                                <path d="M3.78766277,20.6209279 L3.78766277,23.4657096 C2.75965692,23.171462 1.91076413,22.7245536 1.26210136,22.1370448 L1.01506433,21.9131423 L1.10988889,20.3637583 C2.04580507,20.4922982 2.93778363,20.5769903 3.78766277,20.6209279 Z" id="Shape" fill="#A66235"></path>
                            </g>
                        </g>
                    </g>
                </g>
            </g>
        </g>
    </g>
</svg>