<?xml version="1.0" encoding="UTF-8"?>
<svg width="48px" height="48px" viewBox="0 0 48 48" version="1.1" xmlns="http://www.w3.org/2000/svg" xmlns:xlink="http://www.w3.org/1999/xlink">
    <!-- Generator: sketchtool 51.1 (57501) - http://www.bohemiancoding.com/sketch -->
    <title>292BDA87-72A1-47AE-A64E-9F546A57366F</title>
    <desc>Created with sketchtool.</desc>
    <defs></defs>
    <g id="Page-1" stroke="none" stroke-width="1" fill="none" fill-rule="evenodd">
        <g id="Backoffice" transform="translate(-556.000000, -116.000000)" fill-rule="nonzero">
            <g id="Highlights" transform="translate(439.000000, 86.000000)">
                <g id="Group-10" transform="translate(25.000000, 21.000000)">
                    <g id="Group" transform="translate(92.000000, 9.000000)">
                        <rect id="Rectangle-5" stroke="#78868F" x="4.5" y="14.5" width="39" height="33"></rect>
                        <rect id="Rectangle-6-Copy" stroke="#78868F" x="9.5" y="28.5" width="15" height="10" rx="1"></rect>
                        <rect id="Rectangle-6-Copy-3" stroke="#78868F" x="28.5" y="28.5" width="11" height="19" rx="1"></rect>
                        <rect id="Rectangle-6-Copy-3" stroke="#78868F" x="28.5" y="32.5" width="11" height="1" rx="0.5"></rect>
                        <path d="M8.93674989,7.5 L38.9296325,7.5 C39.7655155,7.5 40.5460938,7.91775284 41.0097582,8.61324951 L44.9342585,14.5 L1.93247919,14.5 L7.01619669,8.399539 C7.49118126,7.82955752 8.19480029,7.5 8.93674989,7.5 Z" id="Rectangle-5-Copy-3" stroke="#78868F" fill="#FFFFFF"></path>
                        <path d="M0.542656818,20.6562884 L0.509552602,20.5 L1.70203364e-14,20.5 L0,21 L0.494535562,21.0737196 L0.542310987,20.7532261 L0.542656818,20.6562884 Z M1.47446892,14.5 L1.53801382,14.0737196 L1.04347826,14.5 L1.47446892,14.5 Z M45.5403634,14.5 L45.9130435,14.5 L45.4338853,14.1428546 L45.5403634,14.5 Z M47.4267548,20.8006994 L47.4239366,20.8178184 L47.5208418,21.1428546 L48,21 L48,20.5 L47.4904474,20.5 L47.4267548,20.8006994 Z" id="Combined-Shape" stroke="#78868F" fill="#FFFFFF"></path>
                        <polygon id="Rectangle-10" fill="#78868F" points="14.2294922 8 15.0579928 8 13 15 12 15"></polygon>
                        <polygon id="Rectangle-10-Copy-4" fill="#78868F" points="11.3850098 15 12.2260091 15 10 22 9 22"></polygon>
                        <polygon id="Rectangle-10-Copy" fill="#78868F" points="20.857497 8 21.6859976 8 21 15 20 15"></polygon>
                        <polygon id="Rectangle-10-Copy-5" fill="#78868F" points="19.7950033 15 20.6360026 15 20 22 19 22"></polygon>
                        <polygon id="Rectangle-10-Copy-2" fill="#78868F" points="26.3140024 8 27.142503 8 28 15 27 15"></polygon>
                        <polygon id="Rectangle-10-Copy-6" fill="#78868F" points="27.3639974 15 28.2049967 15 29 22 28 22"></polygon>
                        <polygon id="Rectangle-10-Copy-3" fill="#78868F" points="32.9420072 8 33.7705078 8 36 15 35 15"></polygon>
                        <polygon id="Rectangle-10-Copy-7" fill="#78868F" points="35.7739909 15 36.6149902 15 39 22 38 22"></polygon>
                        <path d="M8.5,7.5 L39.5,7.5 L39.5,2 C39.5,1.72385763 39.2761424,1.5 39,1.5 L9,1.5 C8.72385763,1.5 8.5,1.72385763 8.5,2 L8.5,7.5 Z" id="Rectangle-11" stroke="#78868F" fill="#78868F"></path>
                        <rect id="Rectangle-12" fill="#FFFFFF" x="11" y="4" width="26" height="1"></rect>
                    </g>
                </g>
            </g>
        </g>
    </g>
</svg>